<?xml version="1.0" encoding="UTF-8" standalone="no"?>
<!-- Generated by IcoMoon.io -->

<svg
   xmlns:dc="http://purl.org/dc/elements/1.1/"
   xmlns:cc="http://creativecommons.org/ns#"
   xmlns:rdf="http://www.w3.org/1999/02/22-rdf-syntax-ns#"
   xmlns:svg="http://www.w3.org/2000/svg"
   xmlns="http://www.w3.org/2000/svg"
   xmlns:sodipodi="http://sodipodi.sourceforge.net/DTD/sodipodi-0.dtd"
   xmlns:inkscape="http://www.inkscape.org/namespaces/inkscape"
   version="1.1"
   width="32"
   height="32"
   viewBox="0 0 32 32"
   id="svg2"
   inkscape:version="0.48.3.1 r9886"
   sodipodi:docname="spell-check.svg">
  <metadata
     id="metadata10">
    <rdf:RDF>
      <cc:Work
         rdf:about="">
        <dc:format>image/svg+xml</dc:format>
        <dc:type
           rdf:resource="http://purl.org/dc/dcmitype/StillImage" />
        <dc:title></dc:title>
      </cc:Work>
    </rdf:RDF>
  </metadata>
  <defs
     id="defs8" />
  <sodipodi:namedview
     pagecolor="#ffffff"
     bordercolor="#666666"
     borderopacity="1"
     objecttolerance="10"
     gridtolerance="10"
     guidetolerance="10"
     inkscape:pageopacity="0"
     inkscape:pageshadow="2"
     inkscape:window-width="1440"
     inkscape:window-height="843"
     id="namedview6"
     showgrid="false"
     inkscape:zoom="7.375"
     inkscape:cx="16"
     inkscape:cy="16"
     inkscape:window-x="0"
     inkscape:window-y="29"
     inkscape:window-maximized="1"
     inkscape:current-layer="svg2" />
  <path
     d="M4 8h4v6h2v-12c0-1.1-0.9-2-2-2h-4c-1.1 0-2 0.9-2 2v12h2v-6zM4 2h4v4h-4v-4zM30 2v-2h-6c-1.1 0-2 0.9-2 2v10c0 1.1 0.9 2 2 2h6v-2h-6v-10h6zM20 5v-3c0-1.1-0.9-2-2-2h-6v14h6c1.1 0 2-0.9 2-2v-3c0-1.1-0.275-2-1.375-2 1.1 0 1.375-0.9 1.375-2zM18 12h-4v-4h4v4zM18 6h-4v-4h4v4zM26 18l-13 14-7-9 2.563-2.188 4.438 4.625 11-9.438z"
     fill="#444444"
     id="path4"
     inkscape:export-filename="/var/www/openmediavault/images/spell-check.png"
     inkscape:export-xdpi="45"
     inkscape:export-ydpi="45" />
  <path
     style="fill:#000000"
     d="m 12.552005,31.272965 c -1.429063,-1.767596 -6.3418355,-8.157382 -6.3418355,-8.248493 0,-0.05885 0.5279349,-0.555206 1.1731886,-1.103017 l 1.1731886,-0.996021 2.1827433,2.272087 c 1.200509,1.249648 2.224477,2.270917 2.275484,2.269486 0.05101,-0.0014 2.546823,-2.113038 5.546257,-4.692463 l 5.453517,-4.689862 0.948321,0.948322 0.948323,0.948323 -6.141564,6.622896 c -3.377859,3.642592 -6.276674,6.76556 -6.441811,6.939929 l -0.30025,0.317032 -0.475562,-0.588219 0,0 z"
     id="path2987"
     inkscape:connector-curvature="0"
     inkscape:export-filename="/var/www/openmediavault/images/spell-check.png"
     inkscape:export-xdpi="45"
     inkscape:export-ydpi="45" />
  <path
     style="fill:#000000"
     d="m 12.040678,7.0171007 0,-6.92188239 3.379166,0.04052644 3.379165,0.0405264 0.362531,0.33898305 C 19.838647,1.1483794 19.905101,1.429614 19.904874,3.6610631 19.90463,6.0823843 19.757491,6.5790603 18.964507,6.8353642 l -0.466002,0.1506183 0.487498,0.160889 c 0.794775,0.2622992 0.919082,0.6995981 0.919082,3.2332295 0,2.02287 -0.01992,2.192664 -0.307788,2.623576 -0.583195,0.87299 -0.874584,0.93486 -4.404077,0.935096 l -3.152542,2.1e-4 0,-6.9218823 z m 5.966102,2.9896793 0,-2.0338986 -2.033899,0 -2.033898,0 0,2.0338986 0,2.033898 2.033898,0 2.033899,0 0,-2.033898 z m 0,-6.0338986 0,-2.101695 -2.033899,0 -2.033898,0 0,2.101695 0,2.1016949 2.033898,0 2.033899,0 0,-2.1016949 z"
     id="path2989"
     inkscape:connector-curvature="0"
     inkscape:export-filename="/var/www/openmediavault/images/spell-check.png"
     inkscape:export-xdpi="45"
     inkscape:export-ydpi="45" />
  <path
     style="fill:#000000"
     d="M 23.168961,13.701485 C 22.913245,13.571092 22.577652,13.29221 22.423198,13.081747 22.15138,12.71136 22.141223,12.520013 22.106532,7.1156452 22.071969,1.7312994 22.080386,1.5164454 22.342581,1.0902861 22.49212,0.84723158 22.813333,0.52712069 23.056388,0.37892854 23.46453,0.130081 23.744428,0.10944955 26.718644,0.10898144 l 3.220339,-5.0686e-4 0,0.88135593 0,0.88135589 -2.983051,0 -2.983051,0 0,5.0847458 0,5.0847458 2.983051,0 2.983051,0 0,0.949153 0,0.949152 -3.152542,-2.71e-4 c -2.733409,-1.36e-4 -3.214357,-0.03173 -3.61748,-0.237288 l 0,6.1e-5 z"
     id="path2991"
     inkscape:connector-curvature="0"
     inkscape:export-filename="/var/www/openmediavault/images/spell-check.png"
     inkscape:export-xdpi="45"
     inkscape:export-ydpi="45" />
  <path
     style="fill:#000000"
     d="M 2.0355035,7.7355932 C 2.0789002,0.8457118 2.0664341,0.94121318 2.9964134,0.37417159 3.3868102,0.13613271 3.6898495,0.1095272 6.0067797,0.10987489 8.8398091,0.11030001 9.0570523,0.16445112 9.613846,1.0089894 9.8548831,1.3745919 9.8694503,1.7528362 9.870293,7.6677966 l 8.934e-4,6.2711864 -0.8813559,0 -0.8813559,0 0,-2.983051 0,-2.9830506 -2.1016949,0 -2.101695,0 0,2.9830506 0,2.983051 -0.954327,0 -0.954327,0 0.039073,-6.2033898 0,0 z m 6.0426044,-3.7288135 -0.03743,-2.0677966 -2.0677966,-0.03743 -2.0677967,-0.03743 0,2.1052266 0,2.1052266 2.1052266,0 2.1052266,0 -0.03743,-2.0677966 z"
     id="path2993"
     inkscape:connector-curvature="0"
     inkscape:export-filename="/var/www/openmediavault/images/spell-check.png"
     inkscape:export-xdpi="45"
     inkscape:export-ydpi="45" />
</svg>
